HIERARCHY
ROOT Hips
{
	OFFSET -3.958830 18.904000 13.208200
	CHANNELS 6 Xposition Yposition Zposition Zrotation Yrotation Xrotation 
	JOINT LHipJoint
	{
		OFFSET 0.000000 0.000000 0.000000
		CHANNELS 3 Zrotation Yrotation Xrotation
		JOINT LeftUpLeg
		{
			OFFSET 1.800000 -1.400000 0.085000
			CHANNELS 3 Zrotation Yrotation Xrotation
			JOINT LeftLeg
			{
				OFFSET 2.215000 -6.000000 0.000000
				CHANNELS 3 Zrotation Yrotation Xrotation
				JOINT LeftFoot
				{
					OFFSET 2.500000 -6.900000 0.000000
					CHANNELS 3 Zrotation Yrotation Xrotation
					JOINT LeftToeBase
					{
						OFFSET 0.200000 -0.500000 1.950000
						CHANNELS 3 Zrotation Yrotation Xrotation
						End Site
						{
							OFFSET 0.000000 0.000000 0.000000
						}
					}
				}
			}
		}
	}
	JOINT RHipJoint
	{
		OFFSET 0.000000 0.000000 0.000000
		CHANNELS 3 Zrotation Yrotation Xrotation
		JOINT RightUpLeg
		{
			OFFSET -1.800000 -1.400000 0.085000
			CHANNELS 3 Zrotation Yrotation Xrotation
			JOINT RightLeg
			{
				OFFSET -2.215000 -6.000000 0.000000
				CHANNELS 3 Zrotation Yrotation Xrotation
				JOINT RightFoot
				{
					OFFSET -2.500000 -6.900000 0.000000
					CHANNELS 3 Zrotation Yrotation Xrotation
					JOINT RightToeBase
					{
						OFFSET -0.200000 -0.500000 1.950000
						CHANNELS 3 Zrotation Yrotation Xrotation
						End Site
						{
							OFFSET 0.000000 0.000000 0.000000
						}
					}
				}
			}
		}
	}
	JOINT LowerBack
	{
		OFFSET 0.000000 0.000000 0.000000
		CHANNELS 3 Zrotation Yrotation Xrotation
		JOINT Spine
		{
			OFFSET -0.087000 1.940000 -0.288900
			CHANNELS 3 Zrotation Yrotation Xrotation
			JOINT Spine1
			{
				OFFSET 0.000000 1.950000 0.060000
				CHANNELS 3 Zrotation Yrotation Xrotation
				JOINT Neck
				{
					OFFSET 0.000000 0.000000 0.000000
					CHANNELS 3 Zrotation Yrotation Xrotation
					JOINT Neck1
					{
						OFFSET 0.000000 1.600000 0.340000
						CHANNELS 3 Zrotation Yrotation Xrotation
						JOINT Head
						{
							OFFSET 0.000000 1.667000 -0.240000
							CHANNELS 3 Zrotation Yrotation Xrotation
							End Site
							{
								OFFSET 0.000000 0.000000 0.000000
							}
						}
					}
				}
				JOINT LeftShoulder
				{
					OFFSET 0.000000 0.000000 0.000000
					CHANNELS 3 Zrotation Yrotation Xrotation
					JOINT LeftArm
					{
						OFFSET 2.700000 1.550000 -0.730000
						CHANNELS 3 Zrotation Yrotation Xrotation
						JOINT LeftForeArm
						{
							OFFSET 5.450000 0.000000 0.000000
							CHANNELS 3 Zrotation Yrotation Xrotation
							JOINT LeftHand
							{
								OFFSET 3.450000 0.000000 0.000000
								CHANNELS 3 Zrotation Yrotation Xrotation
								JOINT LeftHandIndex1
								{
									OFFSET 0.750000 0.000000 0.000000
									CHANNELS 3 Zrotation Yrotation Xrotation
									End Site
									{
										OFFSET 0.000000 0.000000 0.000000
									}
								}
							}
						}
					}
				}
				JOINT RightShoulder
				{
					OFFSET 0.000000 0.000000 0.000000
					CHANNELS 3 Zrotation Yrotation Xrotation
					JOINT RightArm
					{
						OFFSET -2.700000 1.550000 -0.730000
						CHANNELS 3 Zrotation Yrotation Xrotation
						JOINT RightForeArm
						{
							OFFSET -5.450000 0.000000 0.000000
							CHANNELS 3 Zrotation Yrotation Xrotation
							JOINT RightHand
							{
								OFFSET -3.450000 0.000000 0.000000
								CHANNELS 3 Zrotation Yrotation Xrotation
								JOINT RightHandIndex1
								{
									OFFSET -0.750000 0.000000 0.000000
									CHANNELS 3 Zrotation Yrotation Xrotation
									End Site
									{
										OFFSET 0.000000 0.000000 0.000000
									}
								}
							}
						}
					}
				}
			}
		}
	}
}
MOTION
Frames: 14
Frame Time: 0.016667
0.436200 16.788830 -1.098550 -0.195109 16.750798 5.721468 -15.404861 12.886669 3.254148 -0.022189 1.259567 1.594724 -10.437283 4.791798 -2.293132 0.538117 4.289815 3.254218 -0.180700 -0.250230 -0.146040 18.273293 -9.704678 3.415478 0.093563 6.584760 -36.282615 2.887291 -6.101934 36.542747 -0.123643 -4.430981 2.735356 -0.193260 0.163910 0.037320 -3.458453 -2.387504 -7.713732 6.757908 -6.371455 5.844297 -3.311356 -6.127742 -8.588138 1.937427 -2.587167 -3.509785 -5.286820 0.976361 27.707193 -0.094950 0.559490 1.480080 -28.471539 7.769697 -1.504811 -59.204986 10.191123 -7.705629 -1.603413 0.834981 -0.270884 -3.997999 2.814422 -0.026370 0.085280 -0.113330 0.019890 24.694481 -7.038376 -0.526615 60.474749 -10.110071 -12.003301 3.497990 10.010933 -0.704416 2.834855 -1.093495 -0.035610 -0.039720 0.062940 0.037870 
0.433470 16.788760 -1.100530 -0.324034 16.884726 5.499789 -15.400010 12.892358 3.243948 0.269289 1.233218 1.643406 -10.588189 4.856917 -2.096977 0.527872 4.328022 3.242635 -0.171270 -0.239190 -0.143270 18.275912 -9.708904 3.411232 0.036612 6.577603 -36.124789 3.150830 -6.237097 36.636745 -0.131010 -4.479130 2.717410 -0.179000 0.170880 0.037980 -3.472614 -2.389465 -7.712572 6.893719 -6.424009 5.926689 -3.428868 -6.171340 -8.282019 1.941243 -2.551535 -3.555303 -5.223882 0.980219 27.652365 -0.019650 0.483870 1.277770 -28.853131 7.233827 -1.408117 -58.560718 10.174523 -7.537974 -2.032067 1.298163 -0.291968 -4.001343 2.821458 -0.028550 0.091210 -0.118260 0.022660 25.059811 -6.577260 -0.428083 59.683881 -10.067130 -11.799812 4.199294 9.777613 -0.697013 2.823176 -1.103984 -0.039810 -0.031600 0.063870 0.036880 
0.431220 16.787370 -1.106660 -0.415879 17.313837 5.170694 -15.403062 12.912497 3.231478 0.650880 1.191871 1.708746 -10.705760 4.932165 -1.831141 0.513418 4.375386 3.227320 -0.157630 -0.221880 -0.134760 18.269267 -9.711055 3.396551 -0.201229 6.487318 -35.980471 3.538800 -6.478214 36.850767 -0.144815 -4.569123 2.681782 -0.158840 0.176920 0.042450 -3.466211 -2.429422 -7.709674 6.857729 -6.602198 6.038523 -3.544462 -6.351168 -7.638896 1.968363 -2.260653 -3.737213 -4.760333 0.868047 27.604020 -0.157470 0.528360 1.045200 -29.364384 6.009707 -1.052309 -57.490472 10.088374 -7.298402 -2.743999 1.814760 -0.340295 -4.003772 2.838676 -0.033760 0.102300 -0.121930 0.024890 25.559017 -5.672849 -0.269161 59.234052 -9.955452 -11.704483 3.827237 9.676954 -0.730275 2.806256 -1.121385 -0.043200 -0.024540 0.062860 0.033990 
0.428840 16.787450 -1.107710 -0.524223 17.476339 4.941983 -15.399466 12.918672 3.223350 0.963357 1.162903 1.789232 -10.852183 4.998884 -1.641221 0.509119 4.412195 3.214277 -0.150780 -0.216270 -0.125400 18.269561 -9.708198 3.404644 -0.359013 6.508786 -35.947226 3.862620 -6.688544 37.171155 -0.161760 -4.658212 2.646968 -0.151850 0.173990 0.044670 -3.475351 -2.438901 -7.725970 6.940917 -6.685016 6.154065 -3.671455 -6.418396 -7.399526 2.006212 -2.113611 -3.896453 -4.523895 0.756893 27.615012 -0.335090 0.573770 0.891430 -29.771093 5.268593 -0.787048 -56.885415 10.382943 -7.306443 -3.113624 1.941980 -0.377336 -3.998212 2.846017 -0.032140 0.104100 -0.120950 0.023050 25.882761 -5.076009 -0.132178 59.072862 -10.015913 -11.696682 3.418317 9.524444 -0.740897 2.800894 -1.128576 -0.044680 -0.023980 0.061440 0.029270 
0.426000 16.787150 -1.101350 -0.645179 17.469886 4.816459 -15.397169 12.912636 3.217480 1.211026 1.140632 1.890223 -10.938726 5.032423 -1.587565 0.511922 4.439455 3.204447 -0.150650 -0.217520 -0.123270 18.271170 -9.706506 3.414823 -0.306241 6.582852 -35.882445 3.989160 -6.754531 37.297376 -0.168491 -4.692609 2.632316 -0.151720 0.172580 0.048650 -3.479970 -2.419513 -7.732884 6.974366 -6.642570 6.159009 -3.685296 -6.372547 -7.392356 2.028427 -2.014869 -3.947177 -4.326376 0.613819 27.455267 -0.444960 0.542110 0.822480 -29.993213 5.064377 -0.678666 -56.737736 10.806853 -7.457075 -3.149629 1.859971 -0.393074 -3.998515 2.849995 -0.033640 0.105820 -0.121350 0.020430 26.050242 -4.922906 -0.079076 58.906498 -10.239817 -11.717591 3.309493 9.358777 -0.739179 2.800465 -1.132288 -0.043230 -0.027840 0.063080 0.027790 
0.423280 16.787190 -1.093080 -0.685348 17.731822 4.726340 -15.395591 12.921316 3.214017 1.430772 1.113687 1.933079 -10.985815 5.065395 -1.486974 0.521771 4.450235 3.200574 -0.152820 -0.221810 -0.122170 18.268961 -9.711749 3.414749 -0.378789 6.562272 -35.816186 4.164763 -6.869668 37.406977 -0.177289 -4.726562 2.620599 -0.159210 0.165900 0.049860 -3.484747 -2.424901 -7.740359 6.999744 -6.722261 6.152941 -3.797791 -6.444616 -7.459168 2.053671 -2.036207 -4.081309 -4.363796 0.462244 27.404818 -0.530560 0.450070 0.801240 -29.825481 4.990541 -0.572285 -56.862767 11.138901 -7.598764 -3.278029 2.008630 -0.395957 -3.992713 2.849700 -0.030850 0.100470 -0.116690 0.019300 25.801233 -4.837228 0.042243 59.268209 -10.513940 -11.864283 3.413941 9.168099 -0.723166 2.808485 -1.127575 -0.039120 -0.033490 0.061150 0.028000 
0.422580 16.786230 -1.083350 -0.704503 17.978201 4.670637 -15.392985 12.920175 3.202420 1.578340 1.101201 1.966125 -10.959546 5.092847 -1.348084 0.525282 4.453215 3.199343 -0.155850 -0.227540 -0.117500 18.269805 -9.721301 3.417422 -0.491365 6.562498 -35.804543 4.323935 -6.996183 37.615744 -0.188006 -4.779137 2.600980 -0.165690 0.158470 0.051280 -3.493968 -2.400073 -7.736618 7.027326 -6.738093 6.121260 -4.014776 -6.463927 -7.498626 2.155665 -1.960175 -4.134496 -4.170612 0.237553 27.132634 -0.787180 0.457490 0.666960 -29.655362 5.087479 -0.530832 -57.134759 11.506610 -7.862637 -3.014095 1.721149 -0.386441 -3.989916 2.845361 -0.027910 0.097310 -0.112850 0.015540 25.389983 -4.999394 0.116541 59.839340 -10.792021 -12.171853 3.466878 9.484346 -0.735384 2.809680 -1.123436 -0.037470 -0.039130 0.059670 0.025070 
0.422950 16.789610 -1.080670 -0.776172 18.127465 4.565221 -15.393119 12.944095 3.190638 1.639849 1.088204 1.911453 -10.758060 5.111113 -1.082746 0.515314 4.436027 3.200586 -0.154410 -0.228540 -0.114670 18.265251 -9.719379 3.433661 -0.493458 6.600238 -35.840442 4.361946 -7.067679 37.845688 -0.200274 -4.815949 2.587228 -0.168680 0.148920 0.051890 -3.492609 -2.432533 -7.749027 7.113098 -6.726313 6.259275 -3.915333 -6.427993 -7.689089 2.145418 -2.175952 -4.172024 -4.551056 0.194217 27.094089 -0.951520 0.424750 0.291200 -29.565792 5.269677 -0.598459 -57.624831 11.716063 -8.084447 -2.886678 1.522037 -0.389795 -3.984935 2.837773 -0.016740 0.089010 -0.106070 0.012390 25.306818 -4.992975 0.182252 59.770957 -11.026709 -12.175117 3.517557 9.046574 -0.701887 2.814235 -1.113344 -0.036680 -0.040470 0.061210 0.021060 
0.421170 16.791960 -1.075790 -0.800162 18.273781 4.468769 -15.394157 12.962575 3.183738 1.700455 1.078893 1.901423 -10.644303 5.127483 -0.910402 0.511465 4.428303 3.198753 -0.154600 -0.232100 -0.113980 18.262083 -9.715064 3.442163 -0.455333 6.634625 -35.850651 4.272445 -7.072784 38.056403 -0.209276 -4.836359 2.578046 -0.173900 0.140490 0.051690 -3.490868 -2.466004 -7.754743 7.144232 -6.741580 6.340294 -3.860045 -6.423650 -7.775420 2.095748 -2.446022 -4.247508 -5.032181 0.221005 27.068877 -0.937600 0.340490 -0.014010 -29.236113 5.451319 -0.624130 -58.174774 11.811403 -8.268494 -2.944791 1.451237 -0.401872 -3.979658 2.833518 -0.006410 0.078810 -0.100580 0.008990 25.059537 -4.947478 0.254485 60.027788 -11.139665 -12.246345 3.417887 8.744583 -0.675037 2.820823 -1.103467 -0.035280 -0.042470 0.064090 0.018500 
0.419340 16.794240 -1.069420 -0.851538 18.348701 4.377697 -15.394255 12.971884 3.177054 1.757795 1.074310 1.952654 -10.486355 5.126091 -0.826287 0.512915 4.421089 3.200776 -0.155550 -0.234350 -0.114540 18.261142 -9.716702 3.446639 -0.341880 6.663644 -35.826419 4.124301 -7.030010 38.188606 -0.212076 -4.840770 2.576912 -0.176750 0.137630 0.049710 -3.491651 -2.473979 -7.754169 7.150973 -6.750150 6.338613 -3.798506 -6.426539 -7.802822 2.051654 -2.553113 -4.282561 -5.238629 0.193379 27.125337 -0.820850 0.194960 -0.038340 -29.022686 5.559027 -0.632585 -58.555369 11.842100 -8.361544 -3.101912 1.519864 -0.410422 -3.977231 2.829470 -0.003980 0.073780 -0.098890 0.008410 24.926977 -4.950601 0.278038 60.111168 -11.204084 -12.246714 3.397773 8.470261 -0.656102 2.828163 -1.098406 -0.034460 -0.042660 0.063780 0.019140 
0.419920 16.794920 -1.061720 -0.886031 18.402889 4.335432 -15.397302 12.974787 3.172506 1.828363 1.070057 2.018333 -10.401726 5.126051 -0.803635 0.514424 4.425039 3.200956 -0.160080 -0.241580 -0.115660 18.258357 -9.716365 3.448872 -0.284999 6.685469 -35.816754 4.049129 -7.024062 38.307700 -0.214479 -4.854348 2.573669 -0.181790 0.138650 0.049790 -3.483462 -2.474889 -7.751036 7.102517 -6.718245 6.284374 -3.712891 -6.402533 -7.838602 2.064533 -2.518287 -4.293170 -5.178857 0.167135 27.119972 -0.826970 0.194020 0.025720 -28.857263 5.685989 -0.641467 -58.936155 11.916179 -8.490612 -3.055238 1.376705 -0.412596 -3.979699 2.823543 -0.001910 0.073870 -0.099330 0.007280 24.747016 -5.083631 0.279963 60.226940 -11.307565 -12.304885 3.309404 8.414380 -0.648838 2.830523 -1.093417 -0.036040 -0.042850 0.065630 0.018200 
0.419940 16.796700 -1.055580 -0.935683 18.219387 4.248784 -15.395146 12.971633 3.174333 1.948438 1.076625 2.140028 -10.547056 5.165545 -0.785056 0.521766 4.448077 3.193482 -0.160790 -0.244630 -0.113410 18.261476 -9.706838 3.461721 -0.098543 6.794780 -35.808892 3.829909 -6.943714 38.518784 -0.220199 -4.862092 2.572660 -0.185240 0.134430 0.046800 -3.487666 -2.474993 -7.763651 7.179231 -6.659079 6.297657 -3.698711 -6.331312 -7.857560 2.073119 -2.638255 -4.367841 -5.408071 0.227222 27.263564 -0.837240 0.213930 0.011770 -28.752252 5.712929 -0.621605 -59.302059 12.021716 -8.620708 -2.940957 1.226328 -0.407690 -3.974480 2.817017 0.004220 0.068300 -0.096240 0.006630 24.608304 -4.985281 0.366799 60.256367 -11.351215 -12.359834 3.195159 8.491666 -0.642397 2.832331 -1.089243 -0.037480 -0.042070 0.064470 0.016390 
0.420800 16.797490 -1.051200 -0.925860 18.233522 4.213601 -15.392817 12.969153 3.172653 2.048739 1.073921 2.161890 -10.718534 5.213799 -0.692958 0.526373 4.465807 3.187822 -0.163520 -0.247880 -0.116280 18.263104 -9.708145 3.462978 -0.097597 6.804512 -35.770300 3.926980 -6.984895 38.520146 -0.221626 -4.868138 2.571881 -0.187780 0.134460 0.043690 -3.493772 -2.465904 -7.764809 7.197339 -6.652607 6.279291 -3.786119 -6.322305 -7.862643 2.087597 -2.680050 -4.405078 -5.474076 0.247481 27.275291 -0.701920 0.147290 0.010860 -28.670088 5.731105 -0.608786 -59.526998 12.060765 -8.689083 -2.809977 1.142588 -0.398981 -3.971949 2.813384 0.006860 0.065400 -0.096490 0.006560 24.479214 -4.967362 0.417081 60.422805 -11.398421 -12.441315 3.097708 8.606538 -0.642991 2.832789 -1.085806 -0.039260 -0.040600 0.065420 0.016710 
0.421890 16.798260 -1.048210 -0.899506 18.356859 4.182841 -15.392446 12.977480 3.164839 2.007719 1.087346 2.171289 -10.576658 5.222860 -0.536749 0.527836 4.451595 3.192349 -0.165880 -0.250890 -0.118540 18.261096 -9.717662 3.464209 -0.175531 6.780037 -35.740050 4.083042 -7.066230 38.544325 -0.225046 -4.885807 2.566602 -0.192320 0.132890 0.042780 -3.495210 -2.460766 -7.762437 7.159261 -6.614848 6.260503 -3.827460 -6.287026 -7.892446 2.102862 -2.692928 -4.440012 -5.508482 0.209487 27.342481 -0.609040 0.054440 0.080800 -28.553698 5.783737 -0.619889 -59.777848 12.038465 -8.735410 -2.684281 1.125653 -0.385438 -3.969925 2.811608 0.008230 0.062430 -0.095280 0.006650 24.326110 -4.999881 0.478624 60.691244 -11.551459 -12.596553 2.974106 8.817797 -0.649080 2.833610 -1.083007 -0.037740 -0.042460 0.065030 0.017990 
